<svg width="92" height="92" viewBox="0 0 92 92" fill="none" xmlns="http://www.w3.org/2000/svg">
<path d="M92 46C92 71.4051 71.4051 92 46 92C20.5949 92 0 71.4051 0 46C0 20.5949 20.5949 0 46 0C71.4051 0 92 20.5949 92 46Z" fill="#F9D976"/>
<path d="M45.9998 2.2771C70.1472 2.2771 89.7232 21.8524 89.7234 45.9998C89.7234 70.1473 70.1473 89.7234 45.9998 89.7234C21.8524 89.7232 2.2771 70.1472 2.2771 45.9998C2.27726 21.8525 21.8525 2.27726 45.9998 2.2771Z" fill="#F9D976" stroke="#024F38" stroke-width="0.25"/>
<g clip-path="url(#clip0_28_1093)">
<path d="M45.7976 59.088C51.7957 59.088 56.6582 54.2287 56.6582 48.2345C56.6582 42.2403 51.7957 37.381 45.7976 37.381C39.7995 37.381 34.937 42.2403 34.937 48.2345C34.937 54.2287 39.7995 59.088 45.7976 59.088Z" fill="#024F38" stroke="#231F20" stroke-width="0.25" stroke-miterlimit="10"/>
<path d="M70.3814 29.4273H63.6319L56.6484 22.8431C56.1558 22.3801 55.4877 22.1169 54.7854 22.1169H36.7267C36.0245 22.1169 35.3564 22.3801 34.8638 22.8431L27.8754 29.4273H21.6136C18.9216 29.4273 16.7368 31.6107 16.7368 34.3009V65.0046C16.7368 67.6948 18.9216 69.8781 21.6136 69.8781H70.3814C73.0734 69.8781 75.2582 67.6948 75.2582 65.0046V34.3009C75.2582 31.6107 73.0734 29.4273 70.3814 29.4273ZM45.9975 61.1057C38.892 61.1057 33.113 55.3305 33.113 48.2296C33.113 41.1288 38.892 35.3536 45.9975 35.3536C53.103 35.3536 58.8819 41.1288 58.8819 48.2296C58.8819 55.3305 53.103 61.1057 45.9975 61.1057ZM69.6938 34.0134C68.933 34.0134 68.3136 33.3944 68.3136 32.6342C68.3136 31.8739 68.933 31.2549 69.6938 31.2549C70.4545 31.2549 71.0739 31.8739 71.0739 32.6342C71.0739 33.3944 70.4545 34.0134 69.6938 34.0134Z" fill="#024F38" stroke="#231F20" stroke-width="0.25" stroke-miterlimit="10"/>
</g>
<defs>
<clipPath id="clip0_28_1093">
<rect width="58.6433" height="47.883" fill="white" transform="translate(16.6783 22.0585)"/>
</clipPath>
</defs>
</svg>
