<svg width="92" height="92" viewBox="0 0 92 92" fill="none" xmlns="http://www.w3.org/2000/svg">
<path d="M46 0C71.4051 0 92 20.5949 92 46C92 71.4051 71.4051 92 46 92C20.5949 92 0 71.4051 0 46C0 20.5949 20.5949 0 46 0ZM70 22C67.7909 19.7909 64.2091 19.7909 62 22L46 38L30 22C27.7909 19.7909 24.2091 19.7909 22 22C19.7909 24.2091 19.7909 27.7909 22 30L38 46L22 62C19.7909 64.2091 19.7909 67.7909 22 70C24.2091 72.2091 27.7909 72.2091 30 70L46 54L62 70C64.2091 72.2091 67.7909 72.2091 70 70C72.2091 67.7909 72.2091 64.2091 70 62L54 46L70 30C72.2091 27.7909 72.2091 24.2091 70 22Z" fill="#EB5757"/>
</svg>
